<?xml version="1.0" encoding="UTF-8" standalone="no"?><!DOCTYPE svg PUBLIC "-//W3C//DTD SVG 1.1//EN" "http://www.w3.org/Graphics/SVG/1.1/DTD/svg11.dtd"><svg width="100%" height="100%" viewBox="0 0 300 34" version="1.1" xmlns="http://www.w3.org/2000/svg" xmlns:xlink="http://www.w3.org/1999/xlink" xml:space="preserve" xmlns:serif="http://www.serif.com/" style="fill-rule:evenodd;clip-rule:evenodd;stroke-linejoin:round;stroke-miterlimit:1.41421;"><g transform="matrix(0.67921,0,0,0.67921,-3.57082,-3.65935)"><path d="M20.871,27.932l18.173,0l0,-16.151l7.182,0l0,39.219l-7.182,0l0,-17.059l-18.173,0l0,17.059l-7.181,0l0,-39.219l7.181,0l0,16.151Z" style="fill:#6b6872;fill-rule:nonzero;"/><path d="M69.352,46.134c1.349,0 2.756,-0.136 4.221,-0.41c1.466,-0.274 2.951,-0.664 4.456,-1.173l0,5.54c-0.899,0.391 -2.277,0.762 -4.133,1.114c-1.857,0.352 -3.781,0.528 -5.775,0.528c-2.012,0 -3.923,-0.259 -5.73,-0.777c-1.808,-0.518 -3.386,-1.353 -4.734,-2.506c-1.348,-1.153 -2.418,-2.648 -3.209,-4.485c-0.792,-1.837 -1.188,-4.064 -1.188,-6.683c0,-2.579 0.372,-4.836 1.114,-6.771c0.743,-1.934 1.739,-3.537 2.99,-4.807c1.251,-1.27 2.682,-2.223 4.294,-2.858c1.612,-0.635 3.278,-0.952 4.998,-0.952c1.798,0 3.454,0.273 4.968,0.82c1.514,0.548 2.824,1.407 3.928,2.58c1.104,1.172 1.964,2.682 2.579,4.528c0.616,1.847 0.924,4.031 0.924,6.552c-0.02,0.977 -0.049,1.807 -0.088,2.491l-18.613,0c0.097,1.309 0.391,2.428 0.879,3.356c0.489,0.928 1.129,1.681 1.92,2.257c0.791,0.577 1.715,0.997 2.77,1.261c1.055,0.263 2.198,0.395 3.429,0.395Zm-2.784,-18.818c-0.88,0 -1.661,0.162 -2.345,0.484c-0.684,0.322 -1.275,0.762 -1.773,1.319c-0.499,0.557 -0.894,1.207 -1.188,1.949c-0.293,0.743 -0.488,1.534 -0.586,2.374l11.168,0c0,-0.84 -0.112,-1.631 -0.337,-2.374c-0.225,-0.742 -0.557,-1.392 -0.997,-1.949c-0.439,-0.557 -0.987,-0.997 -1.641,-1.319c-0.655,-0.322 -1.422,-0.484 -2.301,-0.484Z" style="fill:#6b6872;fill-rule:nonzero;"/><path d="M105.963,50.384c-0.88,0.372 -1.955,0.689 -3.225,0.953c-1.27,0.264 -2.608,0.396 -4.015,0.396c-2.052,0 -3.967,-0.293 -5.745,-0.88c-1.779,-0.586 -3.332,-1.475 -4.661,-2.667c-1.329,-1.192 -2.374,-2.701 -3.136,-4.529c-0.762,-1.827 -1.144,-3.961 -1.144,-6.404c0,-2.736 0.44,-5.081 1.32,-7.035c0.879,-1.954 2.017,-3.542 3.414,-4.763c1.397,-1.221 2.971,-2.12 4.719,-2.697c1.749,-0.576 3.474,-0.864 5.174,-0.864c1.27,0 2.491,0.112 3.664,0.337c1.172,0.224 2.237,0.532 3.195,0.923l0,5.657c-0.86,-0.371 -1.774,-0.669 -2.741,-0.894c-0.967,-0.225 -2.008,-0.337 -3.121,-0.337c-1.114,0 -2.179,0.171 -3.195,0.513c-1.017,0.342 -1.915,0.884 -2.697,1.627c-0.782,0.742 -1.402,1.724 -1.861,2.946c-0.46,1.221 -0.689,2.691 -0.689,4.411c0,1.251 0.176,2.428 0.527,3.532c0.352,1.104 0.865,2.047 1.539,2.829c0.674,0.781 1.534,1.411 2.58,1.89c1.045,0.479 2.281,0.718 3.708,0.718c1.27,0 2.423,-0.127 3.458,-0.381c1.036,-0.254 2.013,-0.566 2.932,-0.938l0,5.657Z" style="fill:#6b6872;fill-rule:nonzero;"/><path d="M112.264,8.557l6.947,0l0,25.56l0.147,0l10.816,-11.52l8.588,0l-12.457,13.337l12.545,15.066l-8.412,0l-11.109,-13.219l-0.118,0l0,13.219l-6.947,0l0,-42.443Z" style="fill:#6b6872;fill-rule:nonzero;"/><path d="M179.446,35.142l-8.94,0l0,-4.308l13.718,0l0,18.964c-0.41,0.215 -1.011,0.435 -1.802,0.66c-0.792,0.224 -1.696,0.435 -2.712,0.63c-1.016,0.195 -2.105,0.352 -3.268,0.469c-1.163,0.117 -2.311,0.176 -3.444,0.176c-3.361,0 -6.326,-0.459 -8.896,-1.378c-2.57,-0.918 -4.724,-2.218 -6.463,-3.898c-1.739,-1.681 -3.058,-3.723 -3.957,-6.126c-0.899,-2.404 -1.349,-5.081 -1.349,-8.032c0,-3.204 0.493,-6.116 1.477,-8.735c0.985,-2.618 2.412,-4.856 4.28,-6.712c1.868,-1.856 4.126,-3.288 6.774,-4.294c2.648,-1.006 5.564,-1.51 8.749,-1.51c0.86,0 1.72,0.035 2.58,0.103c0.86,0.068 1.68,0.166 2.462,0.293c0.782,0.127 1.505,0.279 2.169,0.454c0.665,0.176 1.221,0.362 1.671,0.557l0,4.221c-1.173,-0.391 -2.521,-0.718 -4.045,-0.982c-1.524,-0.264 -3.049,-0.395 -4.573,-0.395c-2.227,0 -4.352,0.337 -6.375,1.011c-2.022,0.674 -3.806,1.695 -5.349,3.063c-1.544,1.368 -2.775,3.082 -3.694,5.144c-0.918,2.062 -1.377,4.48 -1.377,7.255c0,2.716 0.381,5.061 1.143,7.034c0.762,1.974 1.842,3.606 3.237,4.895c1.396,1.29 3.089,2.243 5.079,2.858c1.99,0.616 4.203,0.924 6.639,0.924c1.128,0 2.242,-0.059 3.341,-0.176c1.099,-0.117 2.074,-0.284 2.925,-0.499l0,-11.666Z" style="fill:#246b43;fill-rule:nonzero;"/><path d="M208.582,26.847l-0.352,0c-1.074,0 -2.13,0.098 -3.165,0.293c-1.036,0.196 -2.008,0.494 -2.917,0.894c-0.908,0.401 -1.729,0.894 -2.462,1.481c-0.733,0.586 -1.343,1.28 -1.832,2.081l0,19.404l-4.543,0l0,-27.846l3.517,0l0.88,4.426l0.088,0c0.449,-0.723 1.001,-1.397 1.656,-2.022c0.654,-0.626 1.392,-1.173 2.213,-1.642c0.82,-0.469 1.719,-0.835 2.696,-1.099c0.977,-0.264 2.003,-0.396 3.078,-0.396c0.195,0 0.396,0.005 0.601,0.015c0.205,0.01 0.386,0.024 0.542,0.044l0,4.367Z" style="fill:#246b43;fill-rule:nonzero;"/><path d="M233.497,37.106c0,-1.719 -0.21,-3.248 -0.63,-4.587c-0.42,-1.338 -1.007,-2.472 -1.759,-3.4c-0.752,-0.928 -1.646,-1.632 -2.682,-2.11c-1.036,-0.479 -2.169,-0.719 -3.4,-0.719c-1.231,0 -2.365,0.24 -3.4,0.719c-1.036,0.478 -1.93,1.182 -2.682,2.11c-0.753,0.928 -1.339,2.062 -1.759,3.4c-0.42,1.339 -0.63,2.868 -0.63,4.587c0,1.7 0.21,3.22 0.63,4.558c0.42,1.339 1.011,2.467 1.773,3.386c0.763,0.918 1.661,1.617 2.697,2.096c1.036,0.478 2.169,0.718 3.4,0.718c1.231,0 2.36,-0.24 3.386,-0.718c1.026,-0.479 1.915,-1.178 2.667,-2.096c0.752,-0.919 1.339,-2.047 1.759,-3.386c0.42,-1.338 0.63,-2.858 0.63,-4.558Zm4.748,0c0,2.189 -0.312,4.182 -0.938,5.98c-0.625,1.798 -1.509,3.337 -2.652,4.616c-1.143,1.28 -2.526,2.272 -4.148,2.976c-1.622,0.703 -3.439,1.055 -5.452,1.055c-2.071,0 -3.923,-0.352 -5.554,-1.055c-1.632,-0.704 -3.019,-1.696 -4.163,-2.976c-1.143,-1.279 -2.017,-2.818 -2.623,-4.616c-0.606,-1.798 -0.909,-3.791 -0.909,-5.98c0,-2.208 0.313,-4.211 0.938,-6.009c0.626,-1.797 1.51,-3.341 2.653,-4.631c1.143,-1.289 2.531,-2.286 4.162,-2.99c1.632,-0.703 3.454,-1.055 5.467,-1.055c2.052,0 3.898,0.352 5.54,1.055c1.641,0.704 3.029,1.701 4.162,2.99c1.133,1.29 2.003,2.834 2.609,4.631c0.606,1.798 0.908,3.801 0.908,6.009Z" style="fill:#246b43;fill-rule:nonzero;"/><path d="M265.652,36.96c0,-2.208 -0.259,-4.001 -0.777,-5.379c-0.518,-1.378 -1.182,-2.452 -1.993,-3.224c-0.811,-0.772 -1.676,-1.305 -2.594,-1.598c-0.919,-0.293 -1.837,-0.439 -2.756,-0.439c-1.407,0 -2.73,0.293 -3.971,0.879c-1.241,0.586 -2.34,1.348 -3.298,2.286l0,14.568c0.274,0.371 0.63,0.777 1.07,1.217c0.44,0.439 0.962,0.85 1.568,1.231c0.606,0.381 1.285,0.703 2.037,0.967c0.753,0.264 1.578,0.396 2.477,0.396c1.348,0 2.536,-0.264 3.561,-0.792c1.026,-0.527 1.886,-1.275 2.58,-2.242c0.694,-0.967 1.216,-2.12 1.568,-3.459c0.352,-1.338 0.528,-2.809 0.528,-4.411Zm4.748,-0.352c0,2.599 -0.352,4.846 -1.055,6.742c-0.704,1.895 -1.632,3.463 -2.785,4.704c-1.153,1.241 -2.472,2.164 -3.957,2.77c-1.485,0.606 -3.019,0.909 -4.602,0.909c-1.192,0 -2.242,-0.152 -3.151,-0.455c-0.908,-0.302 -1.68,-0.664 -2.315,-1.084c-0.635,-0.42 -1.143,-0.845 -1.524,-1.275c-0.381,-0.43 -0.65,-0.772 -0.807,-1.026l-0.087,0l-0.968,3.107l-3.429,0l0,-42.443l4.543,0l0,17.206l0.088,0c0.997,-1.055 2.159,-1.876 3.488,-2.462c1.329,-0.587 2.843,-0.88 4.543,-0.88c0.782,0 1.627,0.088 2.536,0.264c0.909,0.176 1.807,0.479 2.697,0.909c0.889,0.43 1.744,0.996 2.564,1.7c0.821,0.703 1.544,1.578 2.169,2.623c0.626,1.046 1.124,2.286 1.495,3.723c0.371,1.436 0.557,3.092 0.557,4.968Z" style="fill:#246b43;fill-rule:nonzero;"/><path d="M288.404,26.32c-1.048,0 -2.023,0.205 -2.923,0.615c-0.9,0.411 -1.687,0.968 -2.359,1.671c-0.673,0.703 -1.217,1.529 -1.632,2.477c-0.416,0.948 -0.673,1.959 -0.772,3.034l14.245,0c0,-1.095 -0.143,-2.116 -0.43,-3.063c-0.287,-0.948 -0.707,-1.774 -1.261,-2.477c-0.554,-0.704 -1.237,-1.256 -2.048,-1.656c-0.812,-0.401 -1.751,-0.601 -2.82,-0.601Zm2.397,21.456c1.505,0 2.877,-0.122 4.118,-0.367c1.241,-0.244 2.477,-0.591 3.708,-1.04l0,3.781c-0.996,0.488 -2.228,0.874 -3.693,1.158c-1.466,0.283 -3.039,0.425 -4.719,0.425c-1.993,0 -3.865,-0.254 -5.613,-0.762c-1.749,-0.508 -3.263,-1.329 -4.542,-2.462c-1.279,-1.134 -2.28,-2.614 -3.005,-4.441c-0.724,-1.827 -1.086,-4.031 -1.086,-6.61c0,-2.54 0.351,-4.744 1.053,-6.61c0.702,-1.866 1.637,-3.424 2.807,-4.675c1.17,-1.25 2.515,-2.188 4.035,-2.814c1.52,-0.625 3.109,-0.938 4.766,-0.938c1.559,0 3.016,0.259 4.371,0.777c1.355,0.518 2.529,1.334 3.523,2.448c0.995,1.113 1.779,2.55 2.354,4.308c0.575,1.759 0.863,3.869 0.863,6.332c0,0.234 0,0.434 0,0.601c0,0.166 -0.01,0.542 -0.029,1.128l-19.229,0c0,1.778 0.269,3.288 0.806,4.529c0.538,1.24 1.271,2.247 2.199,3.019c0.928,0.772 2.017,1.333 3.268,1.685c1.251,0.352 2.599,0.528 4.045,0.528Z" style="fill:#246b43;fill-rule:nonzero;"/><path d="M311.847,27.023l0.088,0c0.508,-0.645 1.069,-1.246 1.685,-1.802c0.616,-0.557 1.304,-1.046 2.066,-1.466c0.763,-0.42 1.598,-0.748 2.507,-0.982c0.908,-0.234 1.9,-0.352 2.975,-0.352c1.27,0 2.462,0.176 3.576,0.528c1.114,0.352 2.081,0.918 2.902,1.7c0.82,0.782 1.47,1.803 1.949,3.063c0.479,1.26 0.718,2.809 0.718,4.646l0,18.642l-4.543,0l0,-17.909c0,-2.404 -0.465,-4.133 -1.393,-5.188c-0.928,-1.056 -2.281,-1.583 -4.059,-1.583c-1.564,0 -3.078,0.434 -4.544,1.304c-1.465,0.87 -2.726,2.067 -3.781,3.591l0,19.785l-4.543,0l0,-27.846l3.517,0l0.88,3.869Z" style="fill:#246b43;fill-rule:nonzero;"/><path d="M343.943,26.965l0.088,0c0.508,-0.645 1.074,-1.246 1.7,-1.803c0.625,-0.557 1.319,-1.036 2.081,-1.436c0.762,-0.401 1.583,-0.719 2.462,-0.953c0.879,-0.234 1.827,-0.352 2.843,-0.352c1.055,0 2.111,0.142 3.166,0.425c1.055,0.284 2.032,0.787 2.931,1.51c0.899,0.723 1.632,1.729 2.198,3.019c0.567,1.29 0.85,2.951 0.85,4.983l0,18.642l-4.543,0l0,-17.909c0,-2.248 -0.425,-3.938 -1.275,-5.071c-0.85,-1.134 -2.242,-1.7 -4.177,-1.7c-1.602,0 -3.126,0.434 -4.572,1.304c-1.446,0.87 -2.697,2.067 -3.752,3.591l0,19.785l-4.544,0l0,-42.443l4.544,0l0,18.408Z" style="fill:#246b43;fill-rule:nonzero;"/><path d="M391.134,37.106c0,-1.719 -0.21,-3.248 -0.63,-4.587c-0.42,-1.338 -1.006,-2.472 -1.759,-3.4c-0.752,-0.928 -1.646,-1.632 -2.682,-2.11c-1.035,-0.479 -2.169,-0.719 -3.4,-0.719c-1.231,0 -2.364,0.24 -3.4,0.719c-1.036,0.478 -1.93,1.182 -2.682,2.11c-0.752,0.928 -1.338,2.062 -1.759,3.4c-0.42,1.339 -0.63,2.868 -0.63,4.587c0,1.7 0.21,3.22 0.63,4.558c0.421,1.339 1.012,2.467 1.774,3.386c0.762,0.918 1.661,1.617 2.696,2.096c1.036,0.478 2.169,0.718 3.401,0.718c1.231,0 2.359,-0.24 3.385,-0.718c1.026,-0.479 1.915,-1.178 2.667,-2.096c0.753,-0.919 1.339,-2.047 1.759,-3.386c0.42,-1.338 0.63,-2.858 0.63,-4.558Zm4.749,0c0,2.189 -0.313,4.182 -0.938,5.98c-0.626,1.798 -1.51,3.337 -2.653,4.616c-1.143,1.28 -2.526,2.272 -4.147,2.976c-1.622,0.703 -3.44,1.055 -5.452,1.055c-2.072,0 -3.923,-0.352 -5.555,-1.055c-1.632,-0.704 -3.019,-1.696 -4.162,-2.976c-1.143,-1.279 -2.018,-2.818 -2.624,-4.616c-0.605,-1.798 -0.908,-3.791 -0.908,-5.98c0,-2.208 0.312,-4.211 0.938,-6.009c0.625,-1.797 1.509,-3.341 2.652,-4.631c1.144,-1.289 2.531,-2.286 4.163,-2.99c1.631,-0.703 3.454,-1.055 5.466,-1.055c2.052,0 3.899,0.352 5.54,1.055c1.642,0.704 3.029,1.701 4.162,2.99c1.134,1.29 2.003,2.834 2.609,4.631c0.606,1.798 0.909,3.801 0.909,6.009Z" style="fill:#246b43;fill-rule:nonzero;"/><path d="M419.215,12.133c-0.587,-0.117 -1.231,-0.205 -1.935,-0.264c-0.703,-0.059 -1.309,-0.088 -1.817,-0.088c-1.016,0 -1.93,0.127 -2.741,0.381c-0.811,0.254 -1.49,0.66 -2.037,1.217c-0.547,0.557 -0.967,1.289 -1.26,2.198c-0.293,0.909 -0.44,2.008 -0.44,3.298l0,4.279l8.295,0l0,3.898l-8.295,0l0,23.948l-4.543,0l0,-23.948l-4.895,0l0,-3.898l4.895,0l0,-4.25c0,-2.013 0.268,-3.708 0.806,-5.086c0.537,-1.377 1.275,-2.511 2.213,-3.4c0.938,-0.889 2.042,-1.544 3.312,-1.964c1.27,-0.42 2.638,-0.63 4.104,-0.63c0.938,0 1.802,0.049 2.594,0.147c0.791,0.097 1.372,0.205 1.744,0.322l0,3.84Z" style="fill:#246b43;fill-rule:nonzero;"/></g></svg>